Coordinates
version=1
nRows=11
nColumns=63
inDegrees=yes

Units are S.I. units (second, meters, Newtons, ...)
If the header above contains a line with 'inDegrees', this indicates whether rotational values are in degrees (yes) or radians (no).

endheader
time	pelvis_tilt	pelvis_list	pelvis_rotation	pelvis_tx	pelvis_ty	pelvis_tz	hip_flexion_r	hip_adduction_r	hip_rotation_r	knee_angle_r	knee_angle_r_beta	ankle_angle_r	subtalar_angle_r	mtp_angle_r	hip_flexion_l	hip_adduction_l	hip_rotation_l	knee_angle_l	knee_angle_l_beta	ankle_angle_l	subtalar_angle_l	mtp_angle_l	L5_S1_Flex_Ext	L5_S1_Lat_Bending	L5_S1_axial_rotation	L4_L5_Flex_Ext	L4_L5_Lat_Bending	L4_L5_axial_rotation	L3_L4_Flex_Ext	L3_L4_Lat_Bending	L3_L4_axial_rotation	L2_L3_Flex_Ext	L2_L3_Lat_Bending	L2_L3_axial_rotation	L1_L2_Flex_Ext	L1_L2_Lat_Bending	L1_L2_axial_rotation	L1_T12_Flex_Ext	L1_T12_Lat_Bending	L1_T12_axial_rotation	Abs_r3	Abs_r2	Abs_r1	Abs_t1	Abs_t2	neck_flexion	neck_bending	neck_rotation	arm_flex_r	arm_add_r	arm_rot_r	elbow_flex_r	pro_sup_r	wrist_flex_r	wrist_dev_r	arm_flex_l	arm_add_l	arm_rot_l	elbow_flex_l	pro_sup_l	wrist_flex_l	wrist_dev_l
10.066667	4.865644	-7.387582	96.493987	0.109915	0.998594	0.261311	0.288605	1.899776	-7.899216	14.410914	0.251518	36.220027	-1.893963	0.000000	-1.393994	-0.104043	-3.312725	12.896325	0.225083	30.911530	1.397324	0.000000	-0.055178	0.121085	-0.481929	-0.102471	0.161043	-0.512050	-0.090652	0.294407	-0.512050	-0.063063	0.294407	-0.421688	-0.051238	0.246917	-0.391567	-0.031529	0.187561	-0.361447	-0.394131	1.369740	-2.680345	0.000000	0.000000	11.363482	-2.790345	6.104704	-20.383851	-19.509101	36.466681	122.341329	86.603011	-1.115283	12.885220	-11.779244	-19.225665	38.210038	101.769677	86.594280	5.489174	5.270601
10.083333	4.865384	-7.455650	96.465300	0.109879	0.998466	0.261203	0.960131	1.847151	-7.051166	15.560266	0.271578	36.460283	-3.172420	0.000000	-1.379871	-0.069850	-3.002167	12.778556	0.223028	30.981909	0.992253	0.000000	-0.043558	0.118223	-0.412966	-0.080892	0.157237	-0.438776	-0.071562	0.287448	-0.438776	-0.049783	0.287448	-0.361345	-0.040448	0.241081	-0.335535	-0.024889	0.183128	-0.309724	-0.311133	1.337367	-2.296791	0.000000	0.000000	11.139533	-2.649661	6.222981	-20.920626	-19.424441	36.027949	122.172930	86.712877	-0.974363	12.562788	-11.568614	-19.294729	38.469763	101.690665	86.512244	5.722101	5.240820
10.100000	4.835350	-7.560172	96.277185	0.110113	0.998343	0.261228	1.506180	1.765550	-6.282656	16.377437	0.285840	36.542701	-4.170848	0.000000	-1.320999	-0.005902	-2.831105	12.684031	0.221378	31.002321	0.633949	0.000000	-0.030211	0.111061	-0.304991	-0.056104	0.147711	-0.324053	-0.049633	0.270033	-0.324053	-0.034528	0.270033	-0.266867	-0.028054	0.226475	-0.247805	-0.017262	0.172033	-0.228743	-0.215792	1.256342	-1.696267	0.000000	0.000000	11.007806	-2.495359	6.218723	-21.395378	-19.282059	35.485855	122.012762	86.847107	-0.525223	12.403699	-11.308632	-19.423399	38.760062	101.664435	86.430779	5.952492	5.130094
10.116667	4.788606	-7.691621	96.002837	0.110502	0.998257	0.261353	1.882586	1.669159	-5.812158	16.805619	0.293313	36.479575	-4.674679	0.000000	-1.220177	0.082678	-2.646936	12.623818	0.220327	30.926137	0.195902	0.000000	-0.015323	0.101339	-0.177441	-0.028456	0.134781	-0.188531	-0.025174	0.246396	-0.188531	-0.017513	0.246396	-0.155261	-0.014229	0.206651	-0.144171	-0.008756	0.156975	-0.133081	-0.109450	1.146370	-0.986874	0.000000	0.000000	10.965966	-2.331578	6.121447	-21.784716	-19.115614	34.917938	121.875985	87.002531	0.055026	12.347920	-11.030804	-19.592293	39.058779	101.685035	86.378042	6.128501	4.931631
10.133333	4.730471	-7.831654	95.647109	0.111029	0.998250	0.261549	2.073868	1.567488	-5.625086	16.847924	0.294052	36.292503	-4.696378	0.000000	-1.106653	0.187488	-2.486209	12.580176	0.219565	30.752300	-0.276364	0.000000	-0.000708	0.090441	-0.037184	-0.001316	0.120287	-0.039508	-0.001164	0.219898	-0.039508	-0.000810	0.219898	-0.032536	-0.000658	0.184427	-0.030212	-0.000405	0.140093	-0.027888	-0.005061	1.023087	-0.206808	0.000000	0.000000	11.004349	-2.162714	5.994154	-22.074095	-18.940069	34.366656	121.771782	87.170217	0.707430	12.390203	-10.751120	-19.784794	39.363104	101.733927	86.305797	6.192560	4.629736
10.150000	4.676313	-7.979245	95.259819	0.111609	0.998327	0.261805	2.081838	1.478260	-5.754846	16.509723	0.288149	36.003291	-4.241328	0.000000	-0.978432	0.296833	-2.272034	12.548225	0.219008	30.488090	-0.834552	0.000000	0.014576	0.080287	0.101510	0.027069	0.106781	0.107854	0.023947	0.195209	0.107854	0.016659	0.195209	0.088821	0.013535	0.163720	0.082477	0.008329	0.124364	0.076132	0.104115	0.908217	0.564568	0.000000	0.000000	11.098795	-2.004940	5.854400	-22.248694	-18.781482	33.884474	121.700004	87.312727	1.372008	12.500896	-10.485129	-19.977053	39.643782	101.803547	86.250650	6.190786	4.300503
10.166667	4.623459	-8.113745	94.856852	0.112217	0.998500	0.262076	1.895999	1.399302	-6.185753	15.820959	0.276128	35.645860	-3.332084	0.000000	-0.865067	0.413894	-1.981226	12.509954	0.218340	30.156138	-1.496169	0.000000	0.028133	0.070850	0.230400	0.052246	0.094231	0.244800	0.046220	0.172265	0.244800	0.032153	0.172265	0.201600	0.026124	0.144478	0.187200	0.016075	0.109747	0.172800	0.200952	0.801472	1.281418	0.000000	0.000000	11.224937	-1.840889	5.759720	-22.298079	-18.659127	33.539806	121.668948	87.406336	1.908451	12.692267	-10.262652	-20.144614	39.859484	101.883356	86.157005	6.140490	3.968949
10.183333	4.572255	-8.215856	94.436780	0.112850	0.998773	0.262318	1.503575	1.331488	-6.877892	14.797352	0.258263	35.243043	-1.998564	0.000000	-0.795684	0.528242	-1.698617	12.452138	0.217331	29.800627	-2.167029	0.000000	0.038143	0.062397	0.354250	0.070836	0.082988	0.376391	0.062666	0.151713	0.376391	0.043594	0.151713	0.309969	0.035420	0.127241	0.287828	0.021795	0.096653	0.265688	0.272453	0.705851	1.970232	0.000000	0.000000	11.324819	-1.685494	5.685018	-22.270975	-18.556097	33.276493	121.670303	87.471371	2.434248	12.966641	-10.038316	-20.296911	40.074839	101.953499	85.927012	5.984849	3.658321
10.200000	4.515829	-8.320530	94.069361	0.113437	0.999064	0.262569	0.988068	1.268829	-7.757873	13.537128	0.236267	34.822750	-0.425322	0.000000	-0.711534	0.645517	-1.386522	12.401610	0.216449	29.460659	-2.825247	0.000000	0.048852	0.053269	0.459310	0.090723	0.070847	0.488017	0.080259	0.129517	0.488017	0.055833	0.129517	0.401896	0.045364	0.108625	0.373189	0.027914	0.082513	0.344482	0.348945	0.602585	2.554543	0.000000	0.000000	11.428334	-1.527102	5.641807	-22.159620	-18.492302	33.167963	121.704306	87.533861	2.771102	13.291920	-9.834770	-20.422799	40.213806	102.029364	85.681935	5.897769	3.507950
10.216667	4.458632	-8.395028	93.733709	0.113988	0.999379	0.262763	0.328853	1.209261	-8.837954	12.068058	0.210627	34.410322	1.463095	0.000000	-0.662178	0.752774	-1.117819	12.337600	0.215332	29.168074	-3.397494	0.000000	0.055819	0.044745	0.554089	0.103661	0.059511	0.588720	0.091705	0.108793	0.588720	0.063795	0.108793	0.484828	0.051833	0.091244	0.450197	0.031895	0.069310	0.415567	0.398708	0.506166	3.081678	0.000000	0.000000	11.501438	-1.380068	5.632919	-22.003532	-18.465108	33.151911	121.767291	87.594430	3.039194	13.649528	-9.633923	-20.523233	40.329354	102.091438	85.323394	5.753615	3.477379
10.233333	4.384491	-8.473972	93.385794	0.114591	0.999654	0.262938	-0.355572	1.165062	-9.628878	10.528337	0.183754	33.948858	3.048070	0.000000	-0.615455	0.871559	-0.943759	12.254856	0.213888	28.919481	-3.881669	0.000000	0.063127	0.034003	0.658162	0.117233	0.045223	0.699297	0.103711	0.082674	0.699297	0.072148	0.082674	0.575892	0.058620	0.069338	0.534757	0.036071	0.052670	0.493622	0.450910	0.384643	3.660500	0.000000	0.000000	11.573287	-1.274759	5.552527	-21.881803	-18.446365	33.163256	121.848502	87.714756	3.247082	13.970185	-9.354282	-20.627653	40.498603	102.117327	84.871750	5.669727	3.634352
